# xmcd
#
# Track frame offsets:
#	150
#	14105
#	25213
#	41156
#	54152
#	68246
#	80751
#	96432
#	114622
#	125904
#	140365
#	154466
#	169135
#
# Disc length: 2459 seconds
#
# Revision: 1
# Processed by: cddbd v1.5.2PL0 Copyright (c) Steve Scherf et al.
# Submitted via: audiograbber 1.83.01
#
DISCID=c009990d
DTITLE=Chris Blair - Face to Face
DYEAR=1900
DGENRE=USA
TTITLE0=Who Do You Think You Are
TTITLE1=Face to Face
TTITLE2=Long Way Around
TTITLE3=Red Dirt Georgia Road
TTITLE4=Side by Side
TTITLE5=My Day To Ride
TTITLE6=Just Like You
TTITLE7=One Single Time
TTITLE8=Low Down Time
TTITLE9=Part Time Woman
TTITLE10=Why Ask Why
TTITLE11=In Your Eyes
TTITLE12=A Memory and a Tear (acoustic)
EXTD=
EXTT0=
EXTT1=
EXTT2=
EXTT3=
EXTT4=
EXTT5=
EXTT6=
EXTT7=
EXTT8=
EXTT9=
EXTT10=
EXTT11=
EXTT12=
PLAYORDER=
